<mxfile host="app.diagrams.net" agent="Mozilla/5.0 (Windows NT 10.0; Win64; x64) AppleWebKit/537.36 (KHTML, like Gecko) Chrome/140.0.0.0 Safari/537.36 Edg/140.0.0.0" version="28.2.5">
  <diagram name="Página-1" id="KPHXCk7pmC7aP_YiS5e-">
    <mxGraphModel dx="1418" dy="756" grid="1" gridSize="10" guides="1" tooltips="1" connect="1" arrows="1" fold="1" page="1" pageScale="1" pageWidth="827" pageHeight="1169" math="0" shadow="0">
      <root>
        <mxCell id="0" />
        <mxCell id="1" parent="0" />
        <mxCell id="lOE8576nRIBLcqtG-LUO-2" value="Usuários" style="swimlane;fontStyle=1;align=center;verticalAlign=top;childLayout=stackLayout;horizontal=1;startSize=26;horizontalStack=0;resizeParent=1;resizeParentMax=0;resizeLast=0;collapsible=1;marginBottom=0;whiteSpace=wrap;html=1;" vertex="1" parent="1">
          <mxGeometry x="301" y="40" width="226" height="236" as="geometry" />
        </mxCell>
        <mxCell id="lOE8576nRIBLcqtG-LUO-3" value="- Matricula: long&lt;div&gt;- Nome: String&lt;/div&gt;&lt;div&gt;- Nascimento: Date&lt;/div&gt;&lt;div&gt;- Genero: Option&lt;/div&gt;&lt;div&gt;- CPF: String&lt;/div&gt;&lt;div&gt;&lt;br&gt;&lt;/div&gt;" style="text;strokeColor=none;fillColor=none;align=left;verticalAlign=top;spacingLeft=4;spacingRight=4;overflow=hidden;rotatable=0;points=[[0,0.5],[1,0.5]];portConstraint=eastwest;whiteSpace=wrap;html=1;" vertex="1" parent="lOE8576nRIBLcqtG-LUO-2">
          <mxGeometry y="26" width="226" height="80" as="geometry" />
        </mxCell>
        <mxCell id="lOE8576nRIBLcqtG-LUO-4" value="" style="line;strokeWidth=1;fillColor=none;align=left;verticalAlign=middle;spacingTop=-1;spacingLeft=3;spacingRight=3;rotatable=0;labelPosition=right;points=[];portConstraint=eastwest;strokeColor=inherit;" vertex="1" parent="lOE8576nRIBLcqtG-LUO-2">
          <mxGeometry y="106" width="226" height="90" as="geometry" />
        </mxCell>
        <mxCell id="lOE8576nRIBLcqtG-LUO-5" value="- AlterarDados()&lt;div&gt;- ExcluirDados()&lt;/div&gt;" style="text;strokeColor=none;fillColor=none;align=left;verticalAlign=top;spacingLeft=4;spacingRight=4;overflow=hidden;rotatable=0;points=[[0,0.5],[1,0.5]];portConstraint=eastwest;whiteSpace=wrap;html=1;" vertex="1" parent="lOE8576nRIBLcqtG-LUO-2">
          <mxGeometry y="196" width="226" height="40" as="geometry" />
        </mxCell>
      </root>
    </mxGraphModel>
  </diagram>
</mxfile>
